<?xml version="1.0" encoding="utf-8"?>
<!-- Generator: Adobe Illustrator 26.0.1, SVG Export Plug-In . SVG Version: 6.00 Build 0)  -->
<svg version="1.1" id="Layer_1" xmlns="http://www.w3.org/2000/svg" xmlns:xlink="http://www.w3.org/1999/xlink" x="0px" y="0px"
	 viewBox="0 0 4750.52 1755.76" style="enable-background:new 0 0 4750.52 1755.76;" xml:space="preserve">
<style type="text/css">
	.st0{opacity:0.9;}
	.st1{fill:#122A3F;}
</style>
<g class="st0">
	<g>
		<g>
			<path class="st1" d="M2698.94,368.37c63.05,20.73,114.12,58.76,153.18,114.03c31.32,44.73,52.69,93.1,64.07,145.13
				c11.4,52.05,17.09,101.63,17.09,148.79c0,119.52-24.01,220.75-72.02,303.68c-65.09,111.81-165.58,167.7-301.47,167.7h-387.55
				V348.86h387.55C2615.53,349.68,2661.9,356.18,2698.94,368.37z M2354.58,504.97v586.64h173.47c88.77,0,150.64-43.69,185.67-131.11
				c19.13-47.96,28.7-105.09,28.7-171.36c0-91.47-14.35-161.69-43.05-210.69c-28.7-48.99-85.82-73.48-171.32-73.48H2354.58z"/>
		</g>
		<g>
			<path class="st1" d="M3323.4,843.41c32.34-4.06,55.47-9.15,69.42-15.25c24.98-10.57,37.46-27.03,37.46-49.39
				c0-27.23-9.57-46.04-28.74-56.41s-47.28-15.55-84.38-15.55c-41.61,0-71.08,10.16-88.38,30.49
				c-12.38,15.04-20.61,35.37-24.74,60.98h-167.7c3.68-58.14,20-105.89,49.01-143.31c46.12-58.54,125.34-87.81,237.62-87.81
				c73.08,0,138,14.43,194.75,43.3c56.75,28.87,85.13,83.34,85.13,163.43v304.9c0,21.14,0.41,46.75,1.22,76.84
				c1.22,22.78,4.68,38.21,10.37,46.35c5.69,8.14,14.23,14.85,25.61,20.12v25.61h-189.04c-5.28-13.42-8.94-26.01-10.98-37.81
				c-2.03-11.79-3.66-25.21-4.88-40.25c-24.13,26.02-51.94,48.17-83.42,66.47c-37.6,21.55-80.15,32.32-127.57,32.32
				c-60.53,0-110.52-17.18-149.97-51.53c-39.45-34.35-59.19-83.03-59.19-146.05c0-81.71,31.75-140.87,95.21-177.45
				c34.82-19.91,86.02-34.15,153.59-42.69L3323.4,843.41z M3429.67,924.52c-11.14,6.92-22.36,12.5-33.7,16.77
				c-11.34,4.27-26.89,8.23-46.67,11.89l-39.56,7.32c-37.08,6.5-63.7,14.43-79.88,23.78c-27.38,15.85-41.06,40.46-41.06,73.79
				c0,29.68,8.35,51.13,25.08,64.33c16.71,13.21,37.04,19.82,60.98,19.82c37.99,0,72.97-10.98,104.97-32.93s48.6-61.99,49.84-120.13
				V924.52z"/>
		</g>
		<g>
			<path class="st1" d="M3686.4,712.91V589.12h92.69V403.74h171.97v185.38h107.94v123.79h-107.94v351.25
				c0,27.24,3.46,44.21,10.37,50.92c6.91,6.71,28.05,10.06,63.42,10.06c5.28,0,10.88-0.09,16.77-0.3c5.89-0.2,11.69-0.51,17.38-0.91
				v129.89l-82.32,3.05c-82.12,2.84-138.22-11.37-168.31-42.69c-19.51-19.91-29.27-50.61-29.27-92.08V712.91H3686.4z"/>
		</g>
		<g>
			<path class="st1" d="M4433.86,843.41c32.34-4.06,55.47-9.15,69.42-15.25c24.98-10.57,37.46-27.03,37.46-49.39
				c0-27.23-9.57-46.04-28.74-56.41s-47.28-15.55-84.38-15.55c-41.61,0-71.08,10.16-88.38,30.49
				c-12.38,15.04-20.61,35.37-24.74,60.98h-167.7c3.68-58.14,20-105.89,49.01-143.31c46.12-58.54,125.34-87.81,237.62-87.81
				c73.08,0,138,14.43,194.75,43.3c56.75,28.87,85.13,83.34,85.13,163.43v304.9c0,21.14,0.41,46.75,1.22,76.84
				c1.22,22.78,4.68,38.21,10.37,46.35c5.69,8.14,14.23,14.85,25.61,20.12v25.61h-189.04c-5.28-13.42-8.94-26.01-10.98-37.81
				c-2.03-11.79-3.66-25.21-4.88-40.25c-24.13,26.02-51.94,48.17-83.42,66.47c-37.6,21.55-80.15,32.32-127.57,32.32
				c-60.53,0-110.52-17.18-149.97-51.53c-39.45-34.35-59.19-83.03-59.19-146.05c0-81.71,31.75-140.87,95.21-177.45
				c34.82-19.91,86.02-34.15,153.59-42.69L4433.86,843.41z M4540.13,924.52c-11.14,6.92-22.36,12.5-33.7,16.77
				c-11.34,4.27-26.89,8.23-46.67,11.89l-39.56,7.32c-37.08,6.5-63.7,14.43-79.88,23.78c-27.38,15.85-41.06,40.46-41.06,73.79
				c0,29.68,8.35,51.13,25.08,64.33c16.71,13.21,37.04,19.82,60.98,19.82c37.99,0,72.97-10.98,104.97-32.93s48.6-61.99,49.84-120.13
				V924.52z"/>
		</g>
	</g>
	<g>
		<g>
			<path class="st1" d="M669.78,426.33c27.61,38.34,41.42,84.25,41.42,137.69c0,55.1-13.93,99.39-41.78,132.83
				c-15.57,18.74-38.5,35.91-68.8,51.42c46.03,16.72,80.79,43.24,104.21,79.55c23.42,36.32,35.14,80.4,35.14,132.22
				c0,53.44-13.38,101.37-40.16,143.8c-17.04,28.18-38.34,51.82-63.89,71.01c-28.81,22.02-62.79,37.12-101.94,45.3
				c-39.15,8.14-81.64,12.23-127.49,12.23H0V330.21h435.98C545.98,331.87,623.93,363.9,669.78,426.33z M179.94,486.89v198.94H399.2
				c39.17,0,70.97-7.45,95.4-22.35c24.43-14.9,36.66-41.34,36.66-79.27c0-42.02-16.15-69.76-48.46-83.24
				c-27.87-9.39-63.4-14.09-106.62-14.09H179.94z M179.94,835.14v240.56h219.04c39.11,0,69.57-5.3,91.35-15.91
				c39.51-19.59,59.29-57.12,59.29-112.63c0-46.92-19.17-79.15-57.49-96.72c-21.38-9.76-51.42-14.86-90.14-15.3H179.94z"/>
		</g>
		<g>
			<path class="st1" d="M1322.81,578.75c46.54,20.85,84.98,53.76,115.3,98.7c27.31,39.63,45.04,85.63,53.14,137.93
				c4.7,30.65,6.62,74.78,5.75,132.39h-485.88c2.69,66.92,25.95,113.84,69.76,140.77c26.64,16.76,58.7,25.1,96.17,25.1
				c39.74,0,72.02-10.2,96.86-30.61c13.54-11.01,25.53-26.32,35.91-45.91h178.09c-4.7,39.59-26.25,79.8-64.67,120.6
				c-59.76,64.86-143.42,97.29-250.99,97.29c-88.78,0-167.12-27.33-235-82.06s-101.8-143.76-101.8-267.08
				c0-115.58,30.63-204.21,91.9-265.87s140.79-92.51,238.58-92.51C1223.98,547.5,1276.27,557.9,1322.81,578.75z M1061.86,729.44
				c-24.66,25.42-40.14,59.84-46.48,103.28h300.52c-3.18-46.31-18.64-81.46-46.46-105.42s-62.31-35.95-103.46-35.95
				C1121.21,691.34,1086.5,704.05,1061.86,729.44z"/>
		</g>
	</g>
	<g>
		<g>
			<g>
				<path class="st1" d="M2238.66,1393.74c-93.53,0-170.7,71.38-180.07,162.53h-192.51v-488.94c90.63-10.56,161.5-87.4,161.5-179.73
					c0-92.85-70.19-169.51-160.31-179.73V161.5h-236.12C1621.44,70.87,1544.43,0,1451.08,0c-99.83,0-180.93,81.09-180.93,180.93
					s81.09,180.93,180.93,180.93c91.66,0,167.64-68.32,179.56-156.73h193.19V708.2c-40.21,4.77-77.35,23-106.14,52.13
					c-34.07,34.24-52.47,79.39-52.13,127.43c0.34,48.38,19.93,94.04,55.37,128.79c28.11,27.6,64.23,45.32,101.54,50.43v532.72
					h236.97c12.1,87.91,87.91,156.05,179.22,156.05c99.83,0,181.1-81.26,181.1-180.93C2419.76,1475,2338.5,1393.74,2238.66,1393.74z
					 M1451.08,319.26c-76.32,0-138.33-62.01-138.33-138.33s62.01-138.33,138.33-138.33c76.32,0,138.51,62.01,138.51,138.33
					S1527.4,319.26,1451.08,319.26z M1750.74,986.06c-27.26-26.75-42.42-61.67-42.59-98.64c-0.34-36.46,13.8-71.04,39.69-97.11
					c26.41-26.58,61.33-41.06,98.64-41.06c76.32,0,138.51,62.01,138.51,138.33c0,75.47-62.18,137.65-138.67,138.51
					C1811.9,1026.44,1776.98,1011.79,1750.74,986.06z M2238.66,1713.17c-76.32,0-138.33-62.18-138.33-138.33
					c0-76.32,62.01-138.51,138.33-138.51c76.32,0,138.51,62.18,138.51,138.51C2377.17,1650.99,2314.99,1713.17,2238.66,1713.17z"/>
			</g>
			<g>
				<path class="st1" d="M2068.46,1581.8"/>
			</g>
			<g>
				<path class="st1" d="M1801.77,1581.8"/>
			</g>
			<g>
				<path class="st1" d="M1846.53,727.94"/>
			</g>
			<g>
				<path class="st1" d="M1846.53,161.56"/>
			</g>
			<g>
				<path class="st1" d="M1845.81,1599.72"/>
			</g>
			<g>
				<path class="st1" d="M1845.81,1033.35"/>
			</g>
		</g>
	</g>
</g>
</svg>
